<svg width="149" height="28" viewBox="0 0 149 28" fill="none" xmlns="http://www.w3.org/2000/svg">
<path fill-rule="evenodd" clip-rule="evenodd" d="M24.4201 24.1483C25.6757 24.9978 27.3078 25.6652 29.3795 26.2112C31.3883 26.6966 33.5227 27 35.8455 27.1214C38.4193 27.1214 40.6165 26.6966 42.3742 25.9685C44.132 25.1798 45.5131 24.209 46.392 22.9348C47.2708 21.6607 47.7103 20.2652 47.7103 18.6876C47.7103 16.8674 47.208 15.4112 46.2036 14.3798C45.1992 13.3483 44.0064 12.5596 42.6881 12.0742C41.3698 11.5888 39.6749 11.164 37.6032 10.7393C35.7827 10.3753 34.4644 10.0112 33.6483 9.64719C32.8322 9.28315 32.3928 8.73708 32.3928 8.06966C32.3928 7.34157 32.7066 6.79551 33.3972 6.37079C34.0877 5.94607 35.2177 5.70337 36.7243 5.70337C39.1099 5.70337 41.5582 6.37079 44.132 7.70562L46.4547 2.24494C45.1364 1.51685 43.6298 0.910112 41.9348 0.546067C40.2398 0.182022 38.4821 0 36.7243 0C34.1505 0 31.9533 0.364045 30.2584 1.15281C28.5006 1.8809 27.1195 2.91236 26.2406 4.18652C25.3618 5.46067 24.9223 6.91685 24.9223 8.49438C24.9223 10.3146 25.4245 11.7101 26.3662 12.8022C27.3706 13.8337 28.5006 14.6225 29.8817 15.1079C31.2628 15.5933 32.9577 16.018 34.9666 16.4427C36.7871 16.8674 38.1682 17.2315 38.9843 17.5955C39.8004 17.9596 40.2398 18.5056 40.2398 19.2337C40.2398 20.6292 38.7332 21.3573 35.8455 21.3573C34.2761 21.3573 32.7066 21.1146 31.1372 20.6292C29.505 20.1438 28.1239 19.5371 26.9312 18.7483L24.4201 24.1483ZM7.34487 18.2022H22.4113C22.474 17.1101 22.5368 16.5034 22.5996 16.382C22.5996 14.1978 22.0974 12.3775 21.093 10.8C20.0885 9.22247 18.7702 8.06966 17.0753 7.22022C15.3803 6.43146 13.497 6.00674 11.4254 6.00674C9.29095 6.00674 7.34487 6.43146 5.58712 7.34157C3.82938 8.25169 2.51107 9.46517 1.50664 11.0427C0.502213 12.6202 0 14.3798 0 16.382C0 18.3843 0.502213 20.1438 1.50664 21.782C2.51107 23.3596 3.95493 24.573 5.77545 25.4831C7.59598 26.3933 9.73038 26.818 12.1787 26.818C16.0708 26.818 19.0213 25.7258 21.0302 23.5416L17.2008 19.6584C16.4475 20.2652 15.7569 20.7506 15.0036 20.9933C14.3131 21.2966 13.4342 21.418 12.4298 21.418C11.1115 21.418 9.98149 21.1146 9.10262 20.5685C8.22374 20.0225 7.65875 19.2337 7.34487 18.2022ZM7.21932 14.5011C7.40765 13.409 7.90986 12.5596 8.66318 11.9528C9.4165 11.3461 10.3581 11.0427 11.4254 11.0427C12.5553 11.0427 13.497 11.3461 14.2503 11.9528C15.0036 12.6202 15.5058 13.4697 15.6942 14.5011H7.21932ZM51.0371 0.546143H58.6331V26.454H51.0371V0.546143ZM87.9659 12.6464L88.0281 27H95H104C99.649 24.0071 96.7285 18.7854 96.7285 12.8632C96.7285 7.70519 98.9338 3.0566 102.391 0H95H88.7128L79.5622 15.6183L70.2249 0H64V26.9368H70.9719V13.0258L77.757 24.281H81.1185L87.9659 12.6464ZM144.719 0L133.356 11.4988L148.674 27H137.939L128.02 16.9624L126.074 18.9318V27H118.478V20.3294C117.035 21.3459 115.277 21.9176 113.456 21.9176C108.56 21.9176 104.542 17.8518 104.542 12.8965C104.542 7.94118 108.56 3.87529 113.456 3.87529C115.277 3.87529 117.035 4.44706 118.478 5.46353V0H126.074V8.00471L133.984 0H144.719Z" fill="url(#paint0_linear_826_1168)"/>
<defs>
<linearGradient id="paint0_linear_826_1168" x1="0" y1="27" x2="217.605" y2="27" gradientUnits="userSpaceOnUse">
<stop stop-color="#008C09"/>
<stop offset="1" stop-color="#65EC14"/>
</linearGradient>
</defs>
</svg>
