<svg width="48" height="48" viewBox="0 0 48 48" fill="none" xmlns="http://www.w3.org/2000/svg">
<rect width="48" height="48" rx="10" fill="url(#paint0_linear_446_9329)"/>
<mask id="mask0_446_9329" style="mask-type:alpha" maskUnits="userSpaceOnUse" x="10" y="10" width="28" height="28">
<rect x="10" y="10" width="28" height="28" fill="#D9D9D9"/>
</mask>
<g mask="url(#mask0_446_9329)">
<path d="M14.6667 32.5197C14.3361 32.5197 14.059 32.4058 13.8354 32.178C13.6118 31.9501 13.5 31.6678 13.5 31.331C13.5 30.9942 13.6118 30.7119 13.8354 30.484C14.059 30.2562 14.3361 30.1423 14.6667 30.1423H19.3333C19.6639 30.1423 19.941 30.2562 20.1646 30.484C20.3882 30.7119 20.5 30.9942 20.5 31.331C20.5 31.6678 20.3882 31.9501 20.1646 32.178C19.941 32.4058 19.6639 32.5197 19.3333 32.5197H14.6667ZM14.6667 18.2549C14.3361 18.2549 14.059 18.141 13.8354 17.9132C13.6118 17.6853 13.5 17.403 13.5 17.0662C13.5 16.7294 13.6118 16.4471 13.8354 16.2192C14.059 15.9914 14.3361 15.8775 14.6667 15.8775H24C24.3306 15.8775 24.6076 15.9914 24.8313 16.2192C25.0549 16.4471 25.1667 16.7294 25.1667 17.0662C25.1667 17.403 25.0549 17.6853 24.8313 17.9132C24.6076 18.141 24.3306 18.2549 24 18.2549H14.6667ZM24 34.8972C23.6694 34.8972 23.3924 34.7833 23.1687 34.5555C22.9451 34.3276 22.8333 34.0453 22.8333 33.7085V28.9535C22.8333 28.6167 22.9451 28.3344 23.1687 28.1066C23.3924 27.8787 23.6694 27.7648 24 27.7648C24.3306 27.7648 24.6076 27.8787 24.8313 28.1066C25.0549 28.3344 25.1667 28.6167 25.1667 28.9535V30.1423H33.3333C33.6639 30.1423 33.941 30.2562 34.1646 30.484C34.3882 30.7119 34.5 30.9942 34.5 31.331C34.5 31.6678 34.3882 31.9501 34.1646 32.178C33.941 32.4058 33.6639 32.5197 33.3333 32.5197H25.1667V33.7085C25.1667 34.0453 25.0549 34.3276 24.8313 34.5555C24.6076 34.7833 24.3306 34.8972 24 34.8972ZM19.3333 27.7648C19.0028 27.7648 18.7257 27.6509 18.5021 27.423C18.2785 27.1952 18.1667 26.9129 18.1667 26.5761V25.3873H14.6667C14.3361 25.3873 14.059 25.2734 13.8354 25.0456C13.6118 24.8177 13.5 24.5354 13.5 24.1986C13.5 23.8618 13.6118 23.5795 13.8354 23.3516C14.059 23.1238 14.3361 23.0099 14.6667 23.0099H18.1667V21.8211C18.1667 21.4843 18.2785 21.202 18.5021 20.9742C18.7257 20.7463 19.0028 20.6324 19.3333 20.6324C19.6639 20.6324 19.941 20.7463 20.1646 20.9742C20.3882 21.202 20.5 21.4843 20.5 21.8211V26.5761C20.5 26.9129 20.3882 27.1952 20.1646 27.423C19.941 27.6509 19.6639 27.7648 19.3333 27.7648ZM24 25.3873C23.6694 25.3873 23.3924 25.2734 23.1687 25.0456C22.9451 24.8177 22.8333 24.5354 22.8333 24.1986C22.8333 23.8618 22.9451 23.5795 23.1687 23.3516C23.3924 23.1238 23.6694 23.0099 24 23.0099H33.3333C33.6639 23.0099 33.941 23.1238 34.1646 23.3516C34.3882 23.5795 34.5 23.8618 34.5 24.1986C34.5 24.5354 34.3882 24.8177 34.1646 25.0456C33.941 25.2734 33.6639 25.3873 33.3333 25.3873H24ZM28.6667 20.6324C28.3361 20.6324 28.059 20.5185 27.8354 20.2906C27.6118 20.0628 27.5 19.7805 27.5 19.4437V14.6887C27.5 14.3519 27.6118 14.0696 27.8354 13.8418C28.059 13.6139 28.3361 13.5 28.6667 13.5C28.9972 13.5 29.2743 13.6139 29.4979 13.8418C29.7215 14.0696 29.8333 14.3519 29.8333 14.6887V15.8775H33.3333C33.6639 15.8775 33.941 15.9914 34.1646 16.2192C34.3882 16.4471 34.5 16.7294 34.5 17.0662C34.5 17.403 34.3882 17.6853 34.1646 17.9132C33.941 18.141 33.6639 18.2549 33.3333 18.2549H29.8333V19.4437C29.8333 19.7805 29.7215 20.0628 29.4979 20.2906C29.2743 20.5185 28.9972 20.6324 28.6667 20.6324Z" fill="white"/>
</g>
<defs>
<linearGradient id="paint0_linear_446_9329" x1="0" y1="47.7852" x2="70.2545" y2="47.7852" gradientUnits="userSpaceOnUse">
<stop stop-color="#008C09"/>
<stop offset="1" stop-color="#65EC14"/>
</linearGradient>
</defs>
</svg>
